<?xml version="1.0" encoding="UTF-8" standalone="no"?>
<svg
   version="1.1"
   viewBox="-15 -15 335.00012 283.42126"
   fill="none"
   stroke="none"
   stroke-linecap="square"
   stroke-miterlimit="10"
   id="svg65"
   sodipodi:docname="venn_cropped.svg"
   width="335.00012"
   height="283.42126"
   xmlns:inkscape="http://www.inkscape.org/namespaces/inkscape"
   xmlns:sodipodi="http://sodipodi.sourceforge.net/DTD/sodipodi-0.dtd"
   xmlns="http://www.w3.org/2000/svg"
   xmlns:svg="http://www.w3.org/2000/svg">
  <defs
     id="defs65" />
  <sodipodi:namedview
     id="namedview65"
     pagecolor="#ffffff"
     bordercolor="#000000"
     borderopacity="0.25"
     inkscape:showpageshadow="2"
     inkscape:pageopacity="0.0"
     inkscape:pagecheckerboard="0"
     inkscape:deskcolor="#d1d1d1" />
  <clipPath
     id="p.0">
    <path
       d="M 0,0 H 960 V 720 H 0 Z"
       clip-rule="nonzero"
       id="path1" />
  </clipPath>
  <rect
     x="-45.500012"
     y="-40.342126"
     width="396.000144"
     height="334.005512"
     fill="#ffffff"
     id="background_white" />
  <g
     clip-path="url(#p.0)"
     id="g65"
     transform="translate(-31.5,-42.07874)">
    <path
       fill="#000000"
       fill-opacity="0"
       d="M 32,87.538605 C 32,72.465714 44.218994,60.24672 59.291885,60.24672 H 308.70812 c 7.23826,0 14.18006,2.875385 19.29825,7.993607 C 333.1246,73.358552 336,80.300347 336,87.538606 V 196.70287 c 0,15.07289 -12.219,27.29188 -27.29188,27.29188 H 59.291885 C 44.218994,223.99475 32,211.77576 32,196.70287 Z"
       fill-rule="evenodd"
       id="path3" />
    <path
       stroke="#000000"
       stroke-width="1"
       stroke-linejoin="round"
       stroke-linecap="butt"
       stroke-dasharray="1, 3"
       d="M 32,87.538605 C 32,72.465714 44.218994,60.24672 59.291885,60.24672 H 308.70812 c 7.23826,0 14.18006,2.875385 19.29825,7.993607 C 333.1246,73.358552 336,80.300347 336,87.538606 V 196.70287 c 0,15.07289 -12.219,27.29188 -27.29188,27.29188 H 59.291885 C 44.218994,223.99475 32,211.77576 32,196.70287 Z"
       fill-rule="evenodd"
       id="path4" />
    <path
       fill="#000000"
       fill-opacity="0"
       d="M 71,98.1579 C 71,86.726389 80.267067,77.459322 91.698578,77.459322 H 204.72662 c 5.4896,0 10.75437,2.180733 14.6361,6.06247 3.88174,3.881736 6.06248,9.1465 6.06248,14.636108 v 82.79182 c 0,11.43151 -9.26707,20.69858 -20.69858,20.69858 H 91.698578 C 80.267067,201.6483 71,192.38123 71,180.94972 Z"
       fill-rule="evenodd"
       id="path5" />
    <path
       stroke="#000000"
       stroke-width="1"
       stroke-linejoin="round"
       stroke-linecap="butt"
       stroke-dasharray="1, 3"
       d="M 71,98.1579 C 71,86.726389 80.267067,77.459322 91.698578,77.459322 H 204.72662 c 5.4896,0 10.75437,2.180733 14.6361,6.06247 3.88174,3.881736 6.06248,9.1465 6.06248,14.636108 v 82.79182 c 0,11.43151 -9.26707,20.69858 -20.69858,20.69858 H 91.698578 C 80.267067,201.6483 71,192.38123 71,180.94972 Z"
       fill-rule="evenodd"
       id="path6" />
    <path
       fill="#cfe2f3"
       d="m 100,148 c 0,-28.7188 7.16344,-52 16,-52 4.24346,0 8.31313,5.47855 11.31371,15.23045 C 130.31428,120.98234 132,134.20874 132,148 c 0,28.71881 -7.16344,52 -16,52 -4.24346,0 -8.31313,-5.47856 -11.31371,-15.23045 C 101.68571,175.01765 100,161.79126 100,148 Z"
       fill-rule="evenodd"
       id="path7" />
    <path
       stroke="#000000"
       stroke-width="1"
       stroke-linejoin="round"
       stroke-linecap="butt"
       d="m 100,148 c 0,-28.7188 7.16344,-52 16,-52 4.24346,0 8.31313,5.47855 11.31371,15.23045 C 130.31428,120.98234 132,134.20874 132,148 c 0,28.71881 -7.16344,52 -16,52 -4.24346,0 -8.31313,-5.47856 -11.31371,-15.23045 C 101.68571,175.01765 100,161.79126 100,148 Z"
       fill-rule="evenodd"
       id="path8" />
    <path
       fill="#000000"
       fill-opacity="0"
       d="m 240,90.32571 c 0,-6.879776 5.57716,-12.45694 12.45694,-12.45694 h 49.82626 c 3.30381,0 6.47226,1.312424 8.80841,3.648552 2.33612,2.336128 3.64853,5.5046 3.64853,8.808388 v 99.27509 c 0,6.87978 -5.57715,12.45694 -12.45694,12.45694 H 252.45694 C 245.57716,202.05774 240,196.48058 240,189.6008 Z"
       fill-rule="evenodd"
       id="path9" />
    <path
       stroke="#000000"
       stroke-width="1"
       stroke-linejoin="round"
       stroke-linecap="butt"
       stroke-dasharray="1, 3"
       d="m 240,90.32571 c 0,-6.879776 5.57716,-12.45694 12.45694,-12.45694 h 49.82626 c 3.30381,0 6.47226,1.312424 8.80841,3.648552 2.33612,2.336128 3.64853,5.5046 3.64853,8.808388 v 99.27509 c 0,6.87978 -5.57715,12.45694 -12.45694,12.45694 H 252.45694 C 245.57716,202.05774 240,196.48058 240,189.6008 Z"
       fill-rule="evenodd"
       id="path10" />
    <path
       fill="#d9ead3"
       d="m 146,148 c 0,-28.7188 7.16344,-52 16,-52 4.24347,0 8.31313,5.47855 11.3137,15.23045 C 176.31428,120.98234 178,134.20874 178,148 c 0,28.71881 -7.16344,52 -16,52 -4.24347,0 -8.31313,-5.47856 -11.31371,-15.23045 C 147.68571,175.01765 146,161.79126 146,148 Z"
       fill-rule="evenodd"
       id="path11" />
    <path
       stroke="#000000"
       stroke-width="1"
       stroke-linejoin="round"
       stroke-linecap="butt"
       d="m 146,148 c 0,-28.7188 7.16344,-52 16,-52 4.24347,0 8.31313,5.47855 11.3137,15.23045 C 176.31428,120.98234 178,134.20874 178,148 c 0,28.71881 -7.16344,52 -16,52 -4.24347,0 -8.31313,-5.47856 -11.31371,-15.23045 C 147.68571,175.01765 146,161.79126 146,148 Z"
       fill-rule="evenodd"
       id="path12" />
    <path
       fill="#b6d7a8"
       d="m 184,148 c 0,-28.7188 7.16344,-52 16,-52 4.24347,0 8.31313,5.47855 11.3137,15.23045 C 214.31428,120.98234 216,134.20874 216,148 c 0,28.71881 -7.16344,52 -16,52 -4.24347,0 -8.31313,-5.47856 -11.31371,-15.23045 C 185.68571,175.01765 184,161.79126 184,148 Z"
       fill-rule="evenodd"
       id="path13" />
    <path
       stroke="#000000"
       stroke-width="1"
       stroke-linejoin="round"
       stroke-linecap="butt"
       d="m 184,148 c 0,-28.7188 7.16344,-52 16,-52 4.24347,0 8.31313,5.47855 11.3137,15.23045 C 214.31428,120.98234 216,134.20874 216,148 c 0,28.71881 -7.16344,52 -16,52 -4.24347,0 -8.31313,-5.47856 -11.31371,-15.23045 C 185.68571,175.01765 184,161.79126 184,148 Z"
       fill-rule="evenodd"
       id="path14" />
    <path
       fill="#c9daf8"
       fill-opacity="0.5"
       d="m 80,148 c 0,-28.7188 7.163444,-52 16,-52 4.24346,0 8.31313,5.47855 11.31371,15.23045 C 110.31429,120.98234 112,134.20874 112,148 c 0,28.71881 -7.16344,52 -16,52 -4.243462,0 -8.313126,-5.47856 -11.313705,-15.23045 C 81.685707,175.01765 80,161.79126 80,148 Z"
       fill-rule="evenodd"
       id="path15" />
    <path
       stroke="#000000"
       stroke-width="1"
       stroke-linejoin="round"
       stroke-linecap="butt"
       d="m 80,148 c 0,-28.7188 7.163444,-52 16,-52 4.24346,0 8.31313,5.47855 11.31371,15.23045 C 110.31429,120.98234 112,134.20874 112,148 c 0,28.71881 -7.16344,52 -16,52 -4.243462,0 -8.313126,-5.47856 -11.313705,-15.23045 C 81.685707,175.01765 80,161.79126 80,148 Z"
       fill-rule="evenodd"
       id="path16" />
    <path
       fill="#000000"
       fill-opacity="0"
       d="m 72,99.90551 h 72 v 63.02363 H 72 Z"
       fill-rule="evenodd"
       id="path17" />
    <path
       fill="#000000"
       d="m 82.359375,116.45676 h 1 L 84.5,113.61301 l 0.09375,-0.40625 0.09375,0.40625 1.15625,2.84375 h 1 l -1.875,-4.5625 h -0.734375 z m 11.029297,3.96875 h 1.125 v -0.0937 q -0.09375,-0.26562 -0.15625,-0.60937 -0.0625,-0.35938 -0.0625,-0.6875 v -2.9375 q 0,-0.53125 -0.203125,-0.92188 -0.1875,-0.40625 -0.515625,-0.6875 -0.34375,-0.25 -0.8125,-0.375 -0.453125,-0.14062 -1,-0.14062 -0.578125,0 -1.046875,0.17187 -0.46875,0.15625 -0.796875,0.42188 -0.328125,0.26562 -0.5,0.60937 -0.171875,0.32813 -0.171875,0.67188 h 1.09375 q 0,-0.20313 0.09375,-0.39063 0.09375,-0.1875 0.265625,-0.3125 0.171875,-0.14062 0.421875,-0.21875 0.265625,-0.0781 0.59375,-0.0781 0.34375,0 0.609375,0.0937 0.28125,0.0781 0.484375,0.23437 0.1875,0.15625 0.296875,0.39063 0.109375,0.23437 0.109375,0.51562 v 0.5 h -1.1875 q -0.65625,0 -1.203125,0.125 -0.53125,0.125 -0.90625,0.39063 -0.390625,0.26562 -0.59375,0.65625 -0.203125,0.39062 -0.203125,0.90625 0,0.40625 0.140625,0.75 0.15625,0.34375 0.453125,0.59375 0.28125,0.25 0.6875,0.40625 0.40625,0.14062 0.90625,0.14062 0.3125,0 0.578125,-0.0781 0.28125,-0.0625 0.53125,-0.17188 0.234375,-0.10937 0.4375,-0.25 0.203125,-0.15625 0.375,-0.3125 0.01563,0.1875 0.04687,0.375 0.04687,0.1875 0.109375,0.3125 z m -1.921875,-0.82812 q -0.3125,0 -0.5625,-0.0781 -0.234375,-0.0781 -0.390625,-0.23437 -0.15625,-0.14063 -0.234375,-0.32813 -0.07813,-0.20312 -0.07813,-0.4375 0,-0.25 0.09375,-0.4375 0.09375,-0.20312 0.265625,-0.34375 0.25,-0.20312 0.65625,-0.29687 0.421875,-0.0937 0.984375,-0.0937 h 1.015625 v 1.28125 q -0.09375,0.1875 -0.265625,0.35937 -0.15625,0.17188 -0.390625,0.3125 -0.21875,0.14063 -0.5,0.21875 -0.265625,0.0781 -0.59375,0.0781 z m 8.466797,0.82812 v -8.53125 h -0.07813 l -3.234375,1.23438 v 1 l 2.234375,-0.85938 v 7.15625 z"
       fill-rule="nonzero"
       id="path18" />
    <path
       fill="#000000"
       d="m 111.16406,145.25676 h 1 l 1.14063,-2.84375 0.0937,-0.40625 0.0937,0.40625 1.15625,2.84375 h 1 l -1.875,-4.5625 h -0.73438 z m 11.0293,3.96875 h 1.125 v -0.0937 q -0.0937,-0.26562 -0.15625,-0.60937 -0.0625,-0.35938 -0.0625,-0.6875 v -2.9375 q 0,-0.53125 -0.20313,-0.92188 -0.1875,-0.40625 -0.51562,-0.6875 -0.34375,-0.25 -0.8125,-0.375 -0.45313,-0.14062 -1,-0.14062 -0.57813,0 -1.04688,0.17187 -0.46875,0.15625 -0.79687,0.42188 -0.32813,0.26562 -0.5,0.60937 -0.17188,0.32813 -0.17188,0.67188 h 1.09375 q 0,-0.20313 0.0937,-0.39063 0.0937,-0.1875 0.26563,-0.3125 0.17187,-0.14062 0.42187,-0.21875 0.26563,-0.0781 0.59375,-0.0781 0.34375,0 0.60938,0.0937 0.28125,0.0781 0.48437,0.23437 0.1875,0.15625 0.29688,0.39063 0.10937,0.23437 0.10937,0.51562 v 0.5 h -1.1875 q -0.65625,0 -1.20312,0.125 -0.53125,0.125 -0.90625,0.39063 -0.39063,0.26562 -0.59375,0.65625 -0.20313,0.39062 -0.20313,0.90625 0,0.40625 0.14063,0.75 0.15625,0.34375 0.45312,0.59375 0.28125,0.25 0.6875,0.40625 0.40625,0.14062 0.90625,0.14062 0.3125,0 0.57813,-0.0781 0.28125,-0.0625 0.53125,-0.17188 0.23437,-0.10937 0.4375,-0.25 0.20312,-0.15625 0.375,-0.3125 0.0156,0.1875 0.0469,0.375 0.0469,0.1875 0.10938,0.3125 z m -1.92188,-0.82812 q -0.3125,0 -0.5625,-0.0781 -0.23437,-0.0781 -0.39062,-0.23437 -0.15625,-0.14063 -0.23438,-0.32813 -0.0781,-0.20312 -0.0781,-0.4375 0,-0.25 0.0937,-0.4375 0.0937,-0.20312 0.26562,-0.34375 0.25,-0.20312 0.65625,-0.29687 0.42188,-0.0937 0.98438,-0.0937 h 1.01562 v 1.28125 q -0.0937,0.1875 -0.26562,0.35937 -0.15625,0.17188 -0.39063,0.3125 -0.21875,0.14063 -0.5,0.21875 -0.26562,0.0781 -0.59375,0.0781 z m 10.18555,0.82812 v -0.89062 h -4.28125 l 2.29687,-2.48438 q 0.3125,-0.34375 0.59375,-0.70312 0.29688,-0.35938 0.53125,-0.71875 0.21875,-0.35938 0.34375,-0.73438 0.125,-0.375 0.125,-0.75 0,-0.51562 -0.1875,-0.9375 -0.17187,-0.4375 -0.5,-0.75 -0.34375,-0.32812 -0.82812,-0.5 -0.46875,-0.1875 -1.07813,-0.1875 -0.65625,0 -1.17187,0.21875 -0.51563,0.20313 -0.85938,0.5625 -0.35937,0.35938 -0.54687,0.84375 -0.1875,0.46875 -0.1875,1.01563 h 1.09375 q 0,-0.40625 0.0937,-0.71875 0.10937,-0.32813 0.3125,-0.5625 0.20312,-0.21875 0.51562,-0.34375 0.32813,-0.125 0.75,-0.125 0.34375,0 0.625,0.125 0.28125,0.125 0.48438,0.32812 0.1875,0.20313 0.28125,0.48438 0.10937,0.28125 0.10937,0.59375 0,0.25 -0.0625,0.5 -0.0625,0.25 -0.21875,0.51562 -0.14062,0.26563 -0.40625,0.59375 -0.25,0.32813 -0.625,0.73438 l -2.79687,3.10937 v 0.78125 z"
       fill-rule="nonzero"
       id="path19" />
    <path
       fill="#e7d1ea"
       d="m 252,148 c 0,-28.7188 7.16345,-52 16,-52 4.24347,0 8.31314,5.47855 11.31372,15.23045 C 282.3143,120.98234 284,134.20874 284,148 c 0,28.71881 -7.16345,52 -16,52 -4.24347,0 -8.31314,-5.47856 -11.31372,-15.23045 C 253.68571,175.01765 252,161.79126 252,148 Z"
       fill-rule="evenodd"
       id="path20" />
    <path
       stroke="#000000"
       stroke-width="1"
       stroke-linejoin="round"
       stroke-linecap="butt"
       d="m 252,148 c 0,-28.7188 7.16345,-52 16,-52 4.24347,0 8.31314,5.47855 11.31372,15.23045 C 282.3143,120.98234 284,134.20874 284,148 c 0,28.71881 -7.16345,52 -16,52 -4.24347,0 -8.31314,-5.47856 -11.31372,-15.23045 C 253.68571,175.01765 252,161.79126 252,148 Z"
       fill-rule="evenodd"
       id="path21" />
    <path
       fill="#b4a7d6"
       fill-opacity="0.5"
       d="m 272,148 c 0,-28.7188 7.16345,-52 16,-52 4.24347,0 8.31314,5.47855 11.31372,15.23045 C 302.3143,120.98234 304,134.20874 304,148 c 0,28.71881 -7.16345,52 -16,52 -4.24347,0 -8.31314,-5.47856 -11.31372,-15.23045 C 273.6857,175.01765 272,161.79126 272,148 Z"
       fill-rule="evenodd"
       id="path22" />
    <path
       stroke="#000000"
       stroke-width="1"
       stroke-linejoin="round"
       stroke-linecap="butt"
       d="m 272,148 c 0,-28.7188 7.16345,-52 16,-52 4.24347,0 8.31314,5.47855 11.31372,15.23045 C 302.3143,120.98234 304,134.20874 304,148 c 0,28.71881 -7.16345,52 -16,52 -4.24347,0 -8.31314,-5.47856 -11.31372,-15.23045 C 273.6857,175.01765 272,161.79126 272,148 Z"
       fill-rule="evenodd"
       id="path23" />
    <path
       fill="#000000"
       fill-opacity="0"
       d="m 54,275 c 0,-11.04569 8.954304,-20 20,-20 5.304329,0 10.391411,2.10715 14.142136,5.85785 C 91.892861,264.60858 94,269.69568 94,275 c 0,11.04568 -8.954308,20 -20,20 -11.045696,0 -20,-8.95432 -20,-20 z"
       fill-rule="evenodd"
       id="path24" />
    <path
       stroke="#000000"
       stroke-width="1"
       stroke-linejoin="round"
       stroke-linecap="butt"
       d="m 54,275 c 0,-11.04569 8.954304,-20 20,-20 5.304329,0 10.391411,2.10715 14.142136,5.85785 C 91.892861,264.60858 94,269.69568 94,275 c 0,11.04568 -8.954308,20 -20,20 -11.045696,0 -20,-8.95432 -20,-20 z"
       fill-rule="evenodd"
       id="path25" />
    <path
       fill="#000000"
       fill-opacity="0"
       d="m 91,256 h 72 v 35.55905 H 91 Z"
       fill-rule="evenodd"
       id="path26" />
    <path
       fill="#000000"
       d="m 100.875,280.45624 v -9.5625 h 1.07813 v 0.89062 q 0.375,-0.53125 0.84375,-0.78125 0.48437,-0.26562 1.15625,-0.26562 0.875,0 1.54687,0.45312 0.6875,0.45313 1.03125,1.28125 0.34375,0.82813 0.34375,1.82813 0,1.04687 -0.375,1.90625 -0.375,0.84375 -1.10937,1.29687 -0.71875,0.45313 -1.53125,0.45313 -0.57813,0 -1.04688,-0.25 -0.46875,-0.25 -0.76562,-0.625 v 3.375 z m 1.0625,-6.07813 q 0,1.34375 0.53125,1.98438 0.54688,0.625 1.3125,0.625 0.78125,0 1.34375,-0.65625 0.5625,-0.65625 0.5625,-2.04688 0,-1.3125 -0.54687,-1.96875 -0.54688,-0.67187 -1.29688,-0.67187 -0.75,0 -1.32812,0.70312 -0.57813,0.70313 -0.57813,2.03125 z m 6.33435,3.42188 v -9.54688 h 1.17188 v 9.54688 z m 7.49234,-0.85938 q -0.65625,0.5625 -1.26562,0.79688 -0.59375,0.21875 -1.28125,0.21875 -1.14063,0 -1.75,-0.54688 -0.60938,-0.5625 -0.60938,-1.4375 0,-0.5 0.21875,-0.92187 0.23438,-0.42188 0.60938,-0.67188 0.375,-0.25 0.84375,-0.39062 0.34375,-0.0781 1.04687,-0.17188 1.42188,-0.17187 2.09375,-0.40625 0,-0.23437 0,-0.29687 0,-0.71875 -0.32812,-1.01563 -0.45313,-0.39062 -1.34375,-0.39062 -0.8125,0 -1.21875,0.29687 -0.39063,0.28125 -0.57813,1.01563 l -1.14062,-0.15625 q 0.15625,-0.73438 0.51562,-1.1875 0.35938,-0.45313 1.03125,-0.6875 0.67188,-0.25 1.5625,-0.25 0.89063,0 1.4375,0.20312 0.5625,0.20313 0.8125,0.53125 0.26563,0.3125 0.375,0.79688 0.0469,0.29687 0.0469,1.07812 v 1.5625 q 0,1.625 0.0781,2.0625 0.0781,0.4375 0.29688,0.82813 h -1.21875 q -0.1875,-0.35938 -0.23438,-0.85938 z m -0.0937,-2.60937 q -0.64062,0.26562 -1.92187,0.4375 -0.71875,0.10937 -1.01563,0.25 -0.29687,0.125 -0.46875,0.375 -0.15625,0.25 -0.15625,0.54687 0,0.46875 0.34375,0.78125 0.35938,0.3125 1.04688,0.3125 0.67187,0 1.20312,-0.29687 0.53125,-0.29688 0.78125,-0.8125 0.1875,-0.39063 0.1875,-1.17188 z m 7.50623,0.9375 1.15625,0.15625 q -0.1875,1.1875 -0.96875,1.85937 -0.78125,0.67188 -1.92188,0.67188 -1.40625,0 -2.28125,-0.92188 -0.85937,-0.9375 -0.85937,-2.65625 0,-1.125 0.375,-1.96875 0.375,-0.84375 1.125,-1.25 0.76562,-0.42187 1.65625,-0.42187 1.125,0 1.84375,0.57812 0.71875,0.5625 0.92187,1.60938 l -1.14062,0.17187 q -0.17188,-0.70312 -0.59375,-1.04687 -0.40625,-0.35938 -0.98438,-0.35938 -0.89062,0 -1.45312,0.64063 -0.54688,0.64062 -0.54688,2 0,1.40625 0.53125,2.03125 0.54688,0.625 1.40625,0.625 0.6875,0 1.14063,-0.42188 0.46875,-0.42187 0.59375,-1.29687 z m 6.88281,0.3125 1.20312,0.14062 q -0.28125,1.0625 -1.0625,1.65625 -0.76562,0.57813 -1.96875,0.57813 -1.51562,0 -2.40625,-0.9375 -0.89062,-0.9375 -0.89062,-2.60938 0,-1.75 0.89062,-2.70312 0.90625,-0.96875 2.34375,-0.96875 1.39063,0 2.26563,0.9375 0.875,0.9375 0.875,2.65625 0,0.10937 0,0.3125 h -5.15625 q 0.0625,1.14062 0.64062,1.75 0.57813,0.59375 1.4375,0.59375 0.65625,0 1.10938,-0.32813 0.45312,-0.34375 0.71875,-1.07812 z m -3.84375,-1.90625 h 3.85937 q -0.0781,-0.85938 -0.4375,-1.29688 -0.5625,-0.6875 -1.45312,-0.6875 -0.8125,0 -1.35938,0.54688 -0.54687,0.53125 -0.60937,1.4375 z"
       fill-rule="nonzero"
       id="path27" />
    <path
       fill="#000000"
       fill-opacity="0"
       d="m 181,260.6668 c 0,-3.68198 2.98483,-6.66681 6.66679,-6.66681 h 30.66642 c 1.76814,0 3.46386,0.70239 4.71412,1.95267 1.25028,1.25027 1.95267,2.94598 1.95267,4.71414 v 26.66638 c 0,3.68198 -2.98483,6.66681 -6.66679,6.66681 h -30.66642 c -3.68196,0 -6.66679,-2.98483 -6.66679,-6.66681 z"
       fill-rule="evenodd"
       id="path28" />
    <path
       stroke="#000000"
       stroke-width="1"
       stroke-linejoin="round"
       stroke-linecap="butt"
       stroke-dasharray="1, 3"
       d="m 181,260.6668 c 0,-3.68198 2.98483,-6.66681 6.66679,-6.66681 h 30.66642 c 1.76814,0 3.46386,0.70239 4.71412,1.95267 1.25028,1.25027 1.95267,2.94598 1.95267,4.71414 v 26.66638 c 0,3.68198 -2.98483,6.66681 -6.66679,6.66681 h -30.66642 c -3.68196,0 -6.66679,-2.98483 -6.66679,-6.66681 z"
       fill-rule="evenodd"
       id="path29" />
    <path
       fill="#000000"
       fill-opacity="0"
       d="m 224,256.44095 h 88 V 292 h -88 z"
       fill-rule="evenodd"
       id="path30" />
    <path
       fill="#000000"
       d="m 233.875,280.8972 v -9.5625 h 1.07812 v 0.89062 q 0.375,-0.53125 0.84375,-0.78125 0.48438,-0.26562 1.15625,-0.26562 0.875,0 1.54688,0.45312 0.6875,0.45313 1.03125,1.28125 0.34375,0.82813 0.34375,1.82813 0,1.04687 -0.375,1.90625 -0.375,0.84375 -1.10938,1.29687 -0.71875,0.45313 -1.53125,0.45313 -0.57812,0 -1.04687,-0.25 -0.46875,-0.25 -0.76563,-0.625 v 3.375 z m 1.0625,-6.07813 q 0,1.34375 0.53125,1.98438 0.54687,0.625 1.3125,0.625 0.78125,0 1.34375,-0.65625 0.5625,-0.65625 0.5625,-2.04688 0,-1.3125 -0.54688,-1.96875 -0.54687,-0.67187 -1.29687,-0.67187 -0.75,0 -1.32813,0.70312 -0.57812,0.70313 -0.57812,2.03125 z m 6.33435,3.42188 v -9.54688 h 1.17188 v 9.54688 z m 7.49234,-0.85938 q -0.65625,0.5625 -1.26562,0.79688 -0.59375,0.21875 -1.28125,0.21875 -1.14063,0 -1.75,-0.54688 -0.60938,-0.5625 -0.60938,-1.4375 0,-0.5 0.21875,-0.92187 0.23438,-0.42188 0.60938,-0.67188 0.375,-0.25 0.84375,-0.39062 0.34375,-0.0781 1.04687,-0.17188 1.42188,-0.17187 2.09375,-0.40625 0,-0.23437 0,-0.29687 0,-0.71875 -0.32812,-1.01563 -0.45313,-0.39062 -1.34375,-0.39062 -0.8125,0 -1.21875,0.29687 -0.39063,0.28125 -0.57813,1.01563 l -1.14062,-0.15625 q 0.15625,-0.73438 0.51562,-1.1875 0.35938,-0.45313 1.03125,-0.6875 0.67188,-0.25 1.5625,-0.25 0.89063,0 1.4375,0.20312 0.5625,0.20313 0.8125,0.53125 0.26563,0.3125 0.375,0.79688 0.0469,0.29687 0.0469,1.07812 v 1.5625 q 0,1.625 0.0781,2.0625 0.0781,0.4375 0.29688,0.82813 h -1.21875 q -0.1875,-0.35938 -0.23438,-0.85938 z m -0.0937,-2.60937 q -0.64062,0.26562 -1.92187,0.4375 -0.71875,0.10937 -1.01563,0.25 -0.29687,0.125 -0.46875,0.375 -0.15625,0.25 -0.15625,0.54687 0,0.46875 0.34375,0.78125 0.35938,0.3125 1.04688,0.3125 0.67187,0 1.20312,-0.29687 0.53125,-0.29688 0.78125,-0.8125 0.1875,-0.39063 0.1875,-1.17188 z m 7.50623,0.9375 1.15625,0.15625 q -0.1875,1.1875 -0.96875,1.85937 -0.78125,0.67188 -1.92188,0.67188 -1.40625,0 -2.28125,-0.92188 -0.85937,-0.9375 -0.85937,-2.65625 0,-1.125 0.375,-1.96875 0.375,-0.84375 1.125,-1.25 0.76562,-0.42187 1.65625,-0.42187 1.125,0 1.84375,0.57812 0.71875,0.5625 0.92187,1.60938 l -1.14062,0.17187 q -0.17188,-0.70312 -0.59375,-1.04687 -0.40625,-0.35938 -0.98438,-0.35938 -0.89062,0 -1.45312,0.64063 -0.54688,0.64062 -0.54688,2 0,1.40625 0.53125,2.03125 0.54688,0.625 1.40625,0.625 0.6875,0 1.14063,-0.42188 0.46875,-0.42187 0.59375,-1.29687 z m 6.88281,0.3125 1.20312,0.14062 q -0.28125,1.0625 -1.0625,1.65625 -0.76562,0.57813 -1.96875,0.57813 -1.51562,0 -2.40625,-0.9375 -0.89062,-0.9375 -0.89062,-2.60938 0,-1.75 0.89062,-2.70312 0.90625,-0.96875 2.34375,-0.96875 1.39063,0 2.26563,0.9375 0.875,0.9375 0.875,2.65625 0,0.10937 0,0.3125 h -5.15625 q 0.0625,1.14062 0.64062,1.75 0.57813,0.59375 1.4375,0.59375 0.65625,0 1.10938,-0.32813 0.45312,-0.34375 0.71875,-1.07812 z m -3.84375,-1.90625 h 3.85937 q -0.0781,-0.85938 -0.4375,-1.29688 -0.5625,-0.6875 -1.45312,-0.6875 -0.8125,0 -1.35938,0.54688 -0.54687,0.53125 -0.60937,1.4375 z m 9.75607,2.0625 1.15625,-0.1875 q 0.10938,0.70312 0.54688,1.07812 0.45312,0.35938 1.25,0.35938 0.8125,0 1.20312,-0.32813 0.39063,-0.32812 0.39063,-0.76562 0,-0.39063 -0.35938,-0.625 -0.23437,-0.15625 -1.1875,-0.39063 -1.29687,-0.32812 -1.79687,-0.5625 -0.48438,-0.25 -0.75,-0.65625 -0.25,-0.42187 -0.25,-0.9375 0,-0.45312 0.20312,-0.84375 0.21875,-0.40625 0.57813,-0.67187 0.28125,-0.1875 0.75,-0.32813 0.46875,-0.14062 1.01562,-0.14062 0.8125,0 1.42188,0.23437 0.60937,0.23438 0.90625,0.64063 0.29687,0.39062 0.40625,1.0625 l -1.14063,0.15625 q -0.0781,-0.53125 -0.45312,-0.82813 -0.375,-0.3125 -1.0625,-0.3125 -0.8125,0 -1.15625,0.26563 -0.34375,0.26562 -0.34375,0.625 0,0.23437 0.14062,0.42187 0.15625,0.1875 0.45313,0.3125 0.17187,0.0625 1.03125,0.29688 1.25,0.32812 1.73437,0.54687 0.5,0.20313 0.78125,0.60938 0.28125,0.40625 0.28125,1 0,0.59375 -0.34375,1.10937 -0.34375,0.51563 -1,0.79688 -0.64062,0.28125 -1.45312,0.28125 -1.34375,0 -2.04688,-0.5625 -0.70312,-0.5625 -0.90625,-1.65625 z m 11.86719,-0.15625 1.20312,0.14062 q -0.28125,1.0625 -1.0625,1.65625 -0.76562,0.57813 -1.96875,0.57813 -1.51562,0 -2.40625,-0.9375 -0.89062,-0.9375 -0.89062,-2.60938 0,-1.75 0.89062,-2.70312 0.90625,-0.96875 2.34375,-0.96875 1.39063,0 2.26563,0.9375 0.875,0.9375 0.875,2.65625 0,0.10937 0,0.3125 h -5.15625 q 0.0625,1.14062 0.64062,1.75 0.57813,0.59375 1.4375,0.59375 0.65625,0 1.10938,-0.32813 0.45312,-0.34375 0.71875,-1.07812 z m -3.84375,-1.90625 h 3.85937 q -0.0781,-0.85938 -0.4375,-1.29688 -0.5625,-0.6875 -1.45312,-0.6875 -0.8125,0 -1.35938,0.54688 -0.54687,0.53125 -0.60937,1.4375 z m 9.08435,3.07812 0.17188,1.03125 q -0.5,0.10938 -0.89063,0.10938 -0.64062,0 -1,-0.20313 -0.34375,-0.20312 -0.48437,-0.53125 -0.14063,-0.32812 -0.14063,-1.39062 v -3.96875 h -0.85937 v -0.90625 h 0.85937 v -1.71875 l 1.17188,-0.70313 v 2.42188 h 1.17187 v 0.90625 h -1.17187 v 4.04687 q 0,0.5 0.0469,0.64063 0.0625,0.14062 0.20313,0.23437 0.14062,0.0781 0.40625,0.0781 0.20312,0 0.51562,-0.0469 z"
       fill-rule="nonzero"
       id="path31" />
    <path
       fill="#000000"
       fill-opacity="0"
       d="M 32,42.07874 H 336 V 76 H 32 Z"
       fill-rule="evenodd"
       id="path32" />
    <path
       fill="#ffffff"
       d="m 169.59766,51.078743 h 28.80469 v 14.400002 h -28.80469 z"
       fill-rule="nonzero"
       id="path33" />
    <path
       fill="#000000"
       fill-opacity="0"
       d="m 169.59766,50.02452 h 28.80469 v 15.826172 h -28.80469 z"
       fill-rule="nonzero"
       id="path34" />
    <path
       fill="#000000"
       d="m 170.95703,58.62999 h 1 l 1.14062,-2.84375 0.0937,-0.40625 0.0937,0.40625 1.15625,2.84375 h 1 l -1.875,-4.5625 h -0.73437 z m 11.0293,3.96875 h 1.125 v -0.09375 q -0.0937,-0.265625 -0.15625,-0.609375 -0.0625,-0.359375 -0.0625,-0.6875 v -2.9375 q 0,-0.53125 -0.20313,-0.921875 -0.1875,-0.40625 -0.51562,-0.6875 -0.34375,-0.25 -0.8125,-0.375 -0.45313,-0.140625 -1,-0.140625 -0.57813,0 -1.04688,0.171875 -0.46875,0.15625 -0.79687,0.421875 -0.32813,0.265625 -0.5,0.609375 -0.17188,0.328125 -0.17188,0.671875 h 1.09375 q 0,-0.203125 0.0937,-0.390625 0.0937,-0.1875 0.26563,-0.3125 0.17187,-0.140625 0.42187,-0.21875 0.26563,-0.07813 0.59375,-0.07813 0.34375,0 0.60938,0.09375 0.28125,0.07813 0.48437,0.234375 0.1875,0.15625 0.29688,0.390625 0.10937,0.234375 0.10937,0.515625 v 0.5 h -1.1875 q -0.65625,0 -1.20312,0.125 -0.53125,0.125 -0.90625,0.390625 -0.39063,0.265625 -0.59375,0.65625 -0.20313,0.390625 -0.20313,0.90625 0,0.40625 0.14063,0.75 0.15625,0.34375 0.45312,0.59375 0.28125,0.25 0.6875,0.40625 0.40625,0.140625 0.90625,0.140625 0.3125,0 0.57813,-0.07813 0.28125,-0.0625 0.53125,-0.171875 0.23437,-0.109375 0.4375,-0.25 0.20312,-0.15625 0.375,-0.3125 0.0156,0.1875 0.0469,0.375 0.0469,0.1875 0.10938,0.3125 z m -1.92188,-0.828125 q -0.3125,0 -0.5625,-0.07813 -0.23437,-0.07813 -0.39062,-0.234375 -0.15625,-0.140625 -0.23438,-0.328125 -0.0781,-0.203125 -0.0781,-0.4375 0,-0.25 0.0937,-0.4375 0.0937,-0.203125 0.26562,-0.34375 0.25,-0.203125 0.65625,-0.296875 0.42188,-0.09375 0.98438,-0.09375 h 1.01562 v 1.28125 q -0.0937,0.1875 -0.26562,0.359375 -0.15625,0.171875 -0.39063,0.3125 -0.21875,0.140625 -0.5,0.21875 -0.26562,0.07813 -0.59375,0.07813 z m 4.95117,0.828125 h 1.09375 v -4.546875 q 0.10938,-0.203125 0.25,-0.375 0.15625,-0.171875 0.32813,-0.296875 0.21875,-0.15625 0.46875,-0.234375 0.26562,-0.07813 0.5625,-0.07813 0.34375,0 0.60937,0.07813 0.26563,0.07813 0.45313,0.265625 0.1875,0.171875 0.28125,0.46875 0.0937,0.296875 0.0937,0.71875 v 4 h 1.07812 v -4.03125 q 0,-0.625 -0.15625,-1.078125 -0.14062,-0.46875 -0.4375,-0.765625 -0.28125,-0.296875 -0.6875,-0.4375 -0.40625,-0.140625 -0.90625,-0.140625 -0.375,0 -0.70312,0.109375 -0.32813,0.09375 -0.60938,0.28125 -0.1875,0.125 -0.35937,0.296875 -0.17188,0.15625 -0.3125,0.359375 L 186,56.25499 h -0.98438 z m 7.7168,2.5625 q 0.42188,0 0.75,-0.15625 0.32813,-0.15625 0.57813,-0.390625 0.25,-0.234375 0.42187,-0.515625 0.17188,-0.28125 0.28125,-0.515625 l 3.21875,-7.328125 h -1.21875 l -1.625,4.109375 -0.29687,0.75 -0.28125,-0.765625 -1.75,-4.09375 h -1.20313 l 2.71875,6.046875 -0.42187,0.84375 q -0.0625,0.109375 -0.17188,0.296875 -0.0937,0.1875 -0.23437,0.359375 -0.15625,0.15625 -0.34375,0.28125 -0.17188,0.125 -0.40625,0.125 -0.0781,0 -0.21875,-0.01563 -0.14063,0 -0.29688,-0.01563 l -0.17187,0.890625 q 0.10937,0.01563 0.3125,0.04687 0.20312,0.04687 0.35937,0.04687 z"
       fill-rule="nonzero"
       id="path35" />
    <path
       fill="#000000"
       fill-opacity="0"
       d="m 198.40234,50.02452 v 0 15.826172 0 z"
       fill-rule="nonzero"
       id="path36" />
    <path
       fill="#000000"
       fill-opacity="0"
       d="m 240.16273,61 h 74.58266 v 33.921257 h -74.58266 z"
       fill-rule="evenodd"
       id="path37" />
    <path
       fill="#ffffff"
       d="m 270.2529,70 h 14.40234 V 84.400002 H 270.2529 Z"
       fill-rule="nonzero"
       id="path38" />
    <path
       fill="#000000"
       fill-opacity="0"
       d="m 270.2529,68.945786 h 14.40234 V 84.771958 H 270.2529 Z"
       fill-rule="nonzero"
       id="path39" />
    <path
       fill="#000000"
       d="m 271.61227,77.551254 h 1 l 1.14063,-2.84375 0.0937,-0.40625 0.0937,0.40625 1.15625,2.84375 h 1 l -1.875,-4.5625 h -0.73438 z m 12.38867,1.40625 h -1.07812 q -0.0625,0.375 -0.1875,0.71875 -0.125,0.328125 -0.34375,0.5625 -0.21875,0.25 -0.53125,0.390625 -0.3125,0.125 -0.75,0.125 -0.39063,0 -0.6875,-0.125 -0.28125,-0.125 -0.5,-0.34375 -0.21875,-0.21875 -0.35938,-0.5 -0.14062,-0.296875 -0.23437,-0.625 -0.0781,-0.3125 -0.125,-0.65625 -0.0312,-0.34375 -0.0312,-0.65625 v -1.203125 q 0,-0.3125 0.0312,-0.640625 0.0469,-0.34375 0.125,-0.671875 0.0937,-0.3125 0.23437,-0.59375 0.14063,-0.296875 0.35938,-0.515625 0.21875,-0.21875 0.51562,-0.34375 0.29688,-0.125 0.67188,-0.125 0.4375,0 0.75,0.140625 0.3125,0.140625 0.53125,0.40625 0.21875,0.25 0.34375,0.578125 0.125,0.328125 0.1875,0.71875 h 1.07812 q -0.0781,-0.609375 -0.29687,-1.109375 -0.21875,-0.5 -0.57813,-0.875 -0.35937,-0.34375 -0.875,-0.546875 -0.5,-0.203125 -1.14062,-0.203125 -0.53125,0 -0.95313,0.15625 -0.42187,0.15625 -0.76562,0.40625 -0.34375,0.265625 -0.59375,0.625 -0.23438,0.359375 -0.39063,0.78125 -0.15625,0.421875 -0.23437,0.890625 -0.0781,0.46875 -0.0937,0.9375 v 1.1875 q 0.0156,0.484375 0.0937,0.953125 0.0781,0.453125 0.23437,0.875 0.15625,0.421875 0.39063,0.78125 0.25,0.359375 0.59375,0.609375 0.34375,0.265625 0.76562,0.421875 0.4375,0.15625 0.95313,0.15625 0.625,0 1.125,-0.203125 0.5,-0.203125 0.875,-0.5625 0.35937,-0.34375 0.57812,-0.828125 0.23438,-0.5 0.3125,-1.09375 z"
       fill-rule="nonzero"
       id="path40" />
    <path
       fill="#000000"
       fill-opacity="0"
       d="m 284.65524,68.945786 v 0 15.826172 0 z"
       fill-rule="nonzero"
       id="path41" />
    <path
       fill="#000000"
       fill-opacity="0"
       d="M 71.31233,61 H 224.60367 V 94.921257 H 71.31233 Z"
       fill-rule="evenodd"
       id="path42" />
    <path
       fill="#ffffff"
       d="m 119.15331,70 h 57.60938 v 14.400002 h -57.60938 z"
       fill-rule="nonzero"
       id="path43" />
    <path
       fill="#000000"
       fill-opacity="0"
       d="m 119.15331,68.945786 h 57.60938 v 15.826172 h -57.60938 z"
       fill-rule="nonzero"
       id="path44" />
    <path
       fill="#000000"
       d="m 120.51269,77.551254 h 1 l 1.14063,-2.84375 0.0937,-0.40625 0.0937,0.40625 1.15625,2.84375 h 1 l -1.875,-4.5625 h -0.73438 z m 6.6543,0.75 v 0.125 q 0,0.671875 0.17187,1.265625 0.1875,0.578125 0.51563,1.015625 0.32813,0.4375 0.79688,0.6875 0.46875,0.25 1.04687,0.25 0.57813,0 1.01563,-0.203125 0.45312,-0.203125 0.76562,-0.59375 l 0.0469,0.671875 h 1 v -9 h -1.09375 v 3.28125 q -0.3125,-0.359375 -0.73438,-0.546875 -0.42187,-0.1875 -0.98437,-0.1875 -0.59375,0 -1.0625,0.234375 -0.46875,0.234375 -0.79688,0.671875 -0.32813,0.421875 -0.51563,1.015625 -0.17187,0.59375 -0.17187,1.3125 z m 1.09375,0.125 v -0.125 q 0,-0.46875 0.0937,-0.890625 0.0937,-0.421875 0.3125,-0.734375 0.20313,-0.3125 0.53125,-0.5 0.32813,-0.1875 0.78125,-0.1875 0.53125,0 0.89063,0.25 0.35937,0.234375 0.5625,0.625 v 2.9375 q -0.20313,0.421875 -0.5625,0.671875 -0.35938,0.25 -0.90625,0.25 -0.45313,0 -0.78125,-0.1875 -0.3125,-0.1875 -0.51563,-0.5 -0.21875,-0.328125 -0.3125,-0.734375 -0.0937,-0.421875 -0.0937,-0.875 z m 9.12305,3.21875 q 0.92188,0 1.54688,-0.375 0.625,-0.375 0.95312,-0.859375 l -0.67187,-0.515625 q -0.29688,0.390625 -0.75,0.625 -0.45313,0.234375 -1.03125,0.234375 -0.4375,0 -0.79688,-0.15625 -0.35937,-0.171875 -0.625,-0.46875 -0.25,-0.265625 -0.39062,-0.609375 -0.14063,-0.359375 -0.1875,-0.8125 v -0.04687 h 4.53125 v -0.484375 q 0,-0.671875 -0.17188,-1.234375 -0.15625,-0.5625 -0.5,-0.984375 -0.34375,-0.421875 -0.85937,-0.65625 -0.51563,-0.234375 -1.1875,-0.234375 -0.54688,0 -1.07813,0.21875 -0.51562,0.21875 -0.92187,0.640625 -0.40625,0.421875 -0.65625,1.03125 -0.23438,0.59375 -0.23438,1.375 v 0.234375 q 0,0.671875 0.21875,1.234375 0.21875,0.5625 0.625,0.96875 0.39063,0.40625 0.95313,0.640625 0.5625,0.234375 1.23437,0.234375 z m -0.14062,-5.6875 q 0.40625,0 0.70312,0.15625 0.3125,0.140625 0.51563,0.390625 0.1875,0.25 0.29687,0.59375 0.125,0.328125 0.125,0.625 v 0.04687 h -3.42187 q 0.0625,-0.4375 0.21875,-0.765625 0.17187,-0.34375 0.40625,-0.578125 0.23437,-0.234375 0.53125,-0.34375 0.29687,-0.125 0.625,-0.125 z m 6.15429,5.5625 h 1.09375 v -5.5 h 2.4375 v -0.84375 h -2.4375 v -0.4375 q 0,-0.40625 0.0937,-0.703125 0.10938,-0.296875 0.29688,-0.484375 0.1875,-0.1875 0.46875,-0.265625 0.29687,-0.09375 0.65625,-0.09375 0.375,0 0.6875,0.0625 0.32812,0.0625 0.5625,0.140625 l 0.125,-0.90625 q -0.15625,-0.03125 -0.29688,-0.0625 -0.14062,-0.03125 -0.29687,-0.0625 -0.21875,-0.04687 -0.45313,-0.0625 -0.21875,-0.03125 -0.45312,-0.03125 -0.5625,0 -1.03125,0.15625 -0.45313,0.15625 -0.76563,0.46875 -0.32812,0.3125 -0.51562,0.78125 -0.17188,0.453125 -0.17188,1.0625 v 0.4375 h -1.75 v 0.84375 h 1.75 z m 9.74805,0 h 1.125 v -0.09375 q -0.0937,-0.265625 -0.15625,-0.609375 -0.0625,-0.359375 -0.0625,-0.6875 v -2.9375 q 0,-0.53125 -0.20312,-0.921875 -0.1875,-0.40625 -0.51563,-0.6875 -0.34375,-0.25 -0.8125,-0.375 -0.45312,-0.140625 -1,-0.140625 -0.57812,0 -1.04687,0.171875 -0.46875,0.15625 -0.79688,0.421875 -0.32812,0.265625 -0.5,0.609375 -0.17187,0.328125 -0.17187,0.671875 h 1.09375 q 0,-0.203125 0.0937,-0.390625 0.0937,-0.1875 0.26562,-0.3125 0.17188,-0.140625 0.42188,-0.21875 0.26562,-0.07813 0.59375,-0.07813 0.34375,0 0.60937,0.09375 0.28125,0.07813 0.48438,0.234375 0.1875,0.15625 0.29687,0.390625 0.10938,0.234375 0.10938,0.515625 v 0.5 h -1.1875 q -0.65625,0 -1.20313,0.125 -0.53125,0.125 -0.90625,0.390625 -0.39062,0.265625 -0.59375,0.65625 -0.20312,0.390625 -0.20312,0.90625 0,0.40625 0.14062,0.75 0.15625,0.34375 0.45313,0.59375 0.28125,0.25 0.6875,0.40625 0.40625,0.140625 0.90625,0.140625 0.3125,0 0.57812,-0.07813 0.28125,-0.0625 0.53125,-0.171875 0.23438,-0.109375 0.4375,-0.25 0.20313,-0.15625 0.375,-0.3125 0.0156,0.1875 0.0469,0.375 0.0469,0.1875 0.10937,0.3125 z m -1.92187,-0.828125 q -0.3125,0 -0.5625,-0.07813 -0.23438,-0.07813 -0.39063,-0.234375 -0.15625,-0.140625 -0.23437,-0.328125 -0.0781,-0.203125 -0.0781,-0.4375 0,-0.25 0.0937,-0.4375 0.0937,-0.203125 0.26563,-0.34375 0.25,-0.203125 0.65625,-0.296875 0.42187,-0.09375 0.98437,-0.09375 h 1.01563 v 1.28125 q -0.0937,0.1875 -0.26563,0.359375 -0.15625,0.171875 -0.39062,0.3125 -0.21875,0.140625 -0.5,0.21875 -0.26563,0.07813 -0.59375,0.07813 z m 9.13867,0.828125 h 0.98437 v -6.34375 h -1.09375 v 4.546875 q -0.0937,0.203125 -0.23437,0.375 -0.125,0.171875 -0.29688,0.296875 -0.20312,0.15625 -0.5,0.25 -0.28125,0.07813 -0.64062,0.07813 -0.3125,0 -0.5625,-0.07813 -0.23438,-0.09375 -0.39063,-0.296875 -0.17187,-0.1875 -0.25,-0.53125 -0.0781,-0.34375 -0.0781,-0.859375 v -3.78125 h -1.07813 v 3.765625 q 0,0.71875 0.14063,1.234375 0.15625,0.5 0.45312,0.828125 0.28125,0.328125 0.6875,0.484375 0.40625,0.15625 0.90625,0.15625 0.625,0 1.09375,-0.265625 0.46875,-0.265625 0.79688,-0.734375 z m 3.18554,-9 v 0.9375 h 2.15625 v 7.125 h -2.15625 v 0.9375 h 5.3125 v -0.9375 h -2.0625 v -8.0625 z m 9.60743,1.125 h -1.09375 v 1.53125 h -1.67188 v 0.84375 h 1.67188 v 3.4375 q 0,0.59375 0.15625,1.015625 0.15625,0.40625 0.42187,0.65625 0.26563,0.265625 0.625,0.390625 0.375,0.125 0.79688,0.125 0.25,0 0.5,-0.03125 0.26562,-0.01563 0.48437,-0.0625 0.23438,-0.04687 0.42188,-0.109375 0.20312,-0.0625 0.32812,-0.140625 l -0.14062,-0.765625 q -0.10938,0.01563 -0.26563,0.04687 -0.15625,0.03125 -0.32812,0.0625 -0.17188,0.03125 -0.35938,0.0625 -0.1875,0.01563 -0.375,0.01563 -0.23437,0 -0.45312,-0.0625 -0.20313,-0.0625 -0.375,-0.203125 -0.15625,-0.140625 -0.25,-0.375 -0.0937,-0.25 -0.0937,-0.625 v -3.4375 h 2.40625 v -0.84375 h -2.40625 z"
       fill-rule="nonzero"
       id="path45" />
    <path
       fill="#000000"
       fill-opacity="0"
       d="m 176.7627,68.945786 v 0 15.826172 0 z"
       fill-rule="nonzero"
       id="path46" />
    <path
       fill="#fff2cc"
       fill-opacity="0.5"
       d="M 40,190.20473 C 40,184.8461 55.171387,179.70696 82.17662,175.91783 109.18186,172.12871 145.80882,170 184,170 c 79.52899,0 144,9.04596 144,20.20473 0,11.15875 -64.47101,20.20473 -144,20.20473 -79.52901,0 -144,-9.04598 -144,-20.20473 z"
       fill-rule="evenodd"
       id="path47" />
    <path
       stroke="#000000"
       stroke-width="1"
       stroke-linejoin="round"
       stroke-linecap="butt"
       d="M 40,190.20473 C 40,184.8461 55.171387,179.70696 82.17662,175.91783 109.18186,172.12871 145.80882,170 184,170 c 79.52899,0 144,9.04596 144,20.20473 0,11.15875 -64.47101,20.20473 -144,20.20473 -79.52901,0 -144,-9.04598 -144,-20.20473 z"
       fill-rule="evenodd"
       id="path48" />
    <path
       fill="#000000"
       fill-opacity="0"
       d="m 141,111.52756 h 42.99213 v 33.92126 H 141 Z"
       fill-rule="evenodd"
       id="path49" />
    <path
       fill="#000000"
       d="m 151.35938,128.07881 h 1 l 1.14062,-2.84375 0.0937,-0.40625 0.0937,0.40625 1.15625,2.84375 h 1 l -1.875,-4.5625 h -0.73437 z m 12.23242,0.875 v -0.125 q 0,-0.5 -0.0781,-0.95312 -0.0781,-0.45313 -0.23438,-0.8125 -0.15625,-0.32813 -0.35937,-0.59375 -0.20313,-0.26563 -0.45313,-0.45313 -0.28125,-0.20312 -0.625,-0.3125 -0.34375,-0.10937 -0.75,-0.10937 -0.32812,0 -0.60937,0.0625 -0.28125,0.0625 -0.51563,0.1875 -0.1875,0.0937 -0.35937,0.23437 -0.15625,0.14063 -0.29688,0.3125 v -3.34375 h -1.07812 v 9 h 0.98437 l 0.0625,-0.71875 q 0.10938,0.125 0.21875,0.25 0.125,0.10937 0.25,0.20312 0.26563,0.1875 0.59375,0.28125 0.34375,0.10938 0.75,0.10938 0.35938,0 0.67188,-0.0937 0.3125,-0.0937 0.5625,-0.25 0.35937,-0.23438 0.60937,-0.57813 0.26563,-0.34375 0.42188,-0.78125 0.10937,-0.34375 0.17187,-0.71875 0.0625,-0.39062 0.0625,-0.79687 z m -1.07812,-0.125 v 0.125 q 0,0.28125 -0.0469,0.54687 -0.0312,0.26563 -0.10937,0.5 -0.0937,0.3125 -0.25,0.5625 -0.15625,0.25 -0.39063,0.42188 -0.17187,0.125 -0.40625,0.20312 -0.21875,0.0625 -0.48437,0.0625 -0.28125,0 -0.51563,-0.0781 -0.23437,-0.0781 -0.42187,-0.20313 -0.1875,-0.14062 -0.32813,-0.3125 -0.14062,-0.1875 -0.25,-0.39062 v -2.78125 q 0.0937,-0.20312 0.23438,-0.375 0.15625,-0.1875 0.34375,-0.32812 0.17187,-0.125 0.40625,-0.1875 0.23437,-0.0781 0.51562,-0.0781 0.26563,0 0.46875,0.0625 0.21875,0.0469 0.39063,0.15625 0.25,0.14063 0.40625,0.40625 0.17187,0.25 0.28125,0.5625 0.0781,0.25 0.10937,0.54687 0.0469,0.28125 0.0469,0.57813 z m 6.41992,3.21875 v -8.53125 h -0.0781 l -3.23437,1.23438 v 1 l 2.23437,-0.85938 v 7.15625 z"
       fill-rule="nonzero"
       id="path50" />
    <path
       fill="#000000"
       fill-opacity="0"
       d="m 244,99.90551 h 72 v 63.02363 h -72 z"
       fill-rule="evenodd"
       id="path51" />
    <path
       fill="#000000"
       d="m 254.35938,116.45676 h 1 l 1.14062,-2.84375 0.0937,-0.40625 0.0937,0.40625 1.15625,2.84375 h 1 l -1.875,-4.5625 h -0.73437 z m 9.56055,3.20313 q -0.5,0 -0.84375,-0.20313 -0.34375,-0.20312 -0.54688,-0.53125 -0.21875,-0.3125 -0.3125,-0.71875 -0.0937,-0.40625 -0.0937,-0.82812 v -0.25 q 0,-0.40625 0.0937,-0.8125 0.0937,-0.40625 0.3125,-0.73438 0.20313,-0.3125 0.54688,-0.51562 0.34375,-0.20313 0.84375,-0.20313 0.32812,0 0.60937,0.10938 0.29688,0.10937 0.5,0.29687 0.20313,0.20313 0.3125,0.45313 0.125,0.25 0.14063,0.54687 h 1.01562 q 0,-0.48437 -0.20312,-0.90625 -0.1875,-0.42187 -0.51563,-0.73437 -0.34375,-0.29688 -0.82812,-0.46875 -0.46875,-0.1875 -1.03125,-0.1875 -0.71875,0 -1.26563,0.26562 -0.53125,0.25 -0.89062,0.67188 -0.35938,0.45312 -0.54688,1.03125 -0.17187,0.5625 -0.17187,1.1875 v 0.25 q 0,0.625 0.17187,1.20312 0.1875,0.57813 0.54688,1 0.35937,0.4375 0.89062,0.70313 0.54688,0.26562 1.26563,0.26562 0.5,0 0.96875,-0.17187 0.46875,-0.1875 0.82812,-0.46875 0.34375,-0.29688 0.5625,-0.67188 0.21875,-0.39062 0.21875,-0.8125 h -1.01562 q -0.0156,0.26563 -0.15625,0.5 -0.125,0.21875 -0.34375,0.375 -0.20313,0.17188 -0.48438,0.26563 -0.28125,0.0937 -0.57812,0.0937 z m 8.01367,0.76562 v -8.53125 h -0.0781 l -3.23437,1.23438 v 1 l 2.23437,-0.85938 v 7.15625 z"
       fill-rule="nonzero"
       id="path52" />
    <path
       fill="#000000"
       d="m 283.16406,145.25676 h 1 l 1.14062,-2.84375 0.0937,-0.40625 0.0937,0.40625 1.15625,2.84375 h 1 l -1.875,-4.5625 h -0.73437 z m 9.56055,3.20313 q -0.5,0 -0.84375,-0.20313 -0.34375,-0.20312 -0.54688,-0.53125 -0.21875,-0.3125 -0.3125,-0.71875 -0.0937,-0.40625 -0.0937,-0.82812 v -0.25 q 0,-0.40625 0.0937,-0.8125 0.0937,-0.40625 0.3125,-0.73438 0.20313,-0.3125 0.54688,-0.51562 0.34375,-0.20313 0.84375,-0.20313 0.32812,0 0.60937,0.10938 0.29688,0.10937 0.5,0.29687 0.20313,0.20313 0.3125,0.45313 0.125,0.25 0.14063,0.54687 h 1.01562 q 0,-0.48437 -0.20312,-0.90625 -0.1875,-0.42187 -0.51563,-0.73437 -0.34375,-0.29688 -0.82812,-0.46875 -0.46875,-0.1875 -1.03125,-0.1875 -0.71875,0 -1.26563,0.26562 -0.53125,0.25 -0.89062,0.67188 -0.35938,0.45312 -0.54688,1.03125 -0.17187,0.5625 -0.17187,1.1875 v 0.25 q 0,0.625 0.17187,1.20312 0.1875,0.57813 0.54688,1 0.35937,0.4375 0.89062,0.70313 0.54688,0.26562 1.26563,0.26562 0.5,0 0.96875,-0.17187 0.46875,-0.1875 0.82812,-0.46875 0.34375,-0.29688 0.5625,-0.67188 0.21875,-0.39062 0.21875,-0.8125 h -1.01562 q -0.0156,0.26563 -0.15625,0.5 -0.125,0.21875 -0.34375,0.375 -0.20313,0.17188 -0.48438,0.26563 -0.28125,0.0937 -0.57812,0.0937 z m 9.73242,0.76562 v -0.89062 h -4.28125 l 2.29687,-2.48438 q 0.3125,-0.34375 0.59375,-0.70312 0.29688,-0.35938 0.53125,-0.71875 0.21875,-0.35938 0.34375,-0.73438 0.125,-0.375 0.125,-0.75 0,-0.51562 -0.1875,-0.9375 -0.17187,-0.4375 -0.5,-0.75 -0.34375,-0.32812 -0.82812,-0.5 -0.46875,-0.1875 -1.07813,-0.1875 -0.65625,0 -1.17187,0.21875 -0.51563,0.20313 -0.85938,0.5625 -0.35937,0.35938 -0.54687,0.84375 -0.1875,0.46875 -0.1875,1.01563 h 1.09375 q 0,-0.40625 0.0937,-0.71875 0.10937,-0.32813 0.3125,-0.5625 0.20312,-0.21875 0.51562,-0.34375 0.32813,-0.125 0.75,-0.125 0.34375,0 0.625,0.125 0.28125,0.125 0.48438,0.32812 0.1875,0.20313 0.28125,0.48438 0.10937,0.28125 0.10937,0.59375 0,0.25 -0.0625,0.5 -0.0625,0.25 -0.21875,0.51562 -0.14062,0.26563 -0.40625,0.59375 -0.25,0.32813 -0.625,0.73438 l -2.79687,3.10937 v 0.78125 z"
       fill-rule="nonzero"
       id="path53" />
    <path
       fill="#000000"
       fill-opacity="0"
       d="m 180,111.52756 h 44 v 33.92126 h -44 z"
       fill-rule="evenodd"
       id="path54" />
    <path
       fill="#000000"
       d="m 190.35938,128.07881 h 1 l 1.14062,-2.84375 0.0937,-0.40625 0.0937,0.40625 1.15625,2.84375 h 1 l -1.875,-4.5625 h -0.73437 z m 12.23242,0.875 v -0.125 q 0,-0.5 -0.0781,-0.95312 -0.0781,-0.45313 -0.23438,-0.8125 -0.15625,-0.32813 -0.35937,-0.59375 -0.20313,-0.26563 -0.45313,-0.45313 -0.28125,-0.20312 -0.625,-0.3125 -0.34375,-0.10937 -0.75,-0.10937 -0.32812,0 -0.60937,0.0625 -0.28125,0.0625 -0.51563,0.1875 -0.1875,0.0937 -0.35937,0.23437 -0.15625,0.14063 -0.29688,0.3125 v -3.34375 h -1.07812 v 9 h 0.98437 l 0.0625,-0.71875 q 0.10938,0.125 0.21875,0.25 0.125,0.10937 0.25,0.20312 0.26563,0.1875 0.59375,0.28125 0.34375,0.10938 0.75,0.10938 0.35938,0 0.67188,-0.0937 0.3125,-0.0937 0.5625,-0.25 0.35937,-0.23438 0.60937,-0.57813 0.26563,-0.34375 0.42188,-0.78125 0.10937,-0.34375 0.17187,-0.71875 0.0625,-0.39062 0.0625,-0.79687 z m -1.07812,-0.125 v 0.125 q 0,0.28125 -0.0469,0.54687 -0.0312,0.26563 -0.10937,0.5 -0.0937,0.3125 -0.25,0.5625 -0.15625,0.25 -0.39063,0.42188 -0.17187,0.125 -0.40625,0.20312 -0.21875,0.0625 -0.48437,0.0625 -0.28125,0 -0.51563,-0.0781 -0.23437,-0.0781 -0.42187,-0.20313 -0.1875,-0.14062 -0.32813,-0.3125 -0.14062,-0.1875 -0.25,-0.39062 v -2.78125 q 0.0937,-0.20312 0.23438,-0.375 0.15625,-0.1875 0.34375,-0.32812 0.17187,-0.125 0.40625,-0.1875 0.23437,-0.0781 0.51562,-0.0781 0.26563,0 0.46875,0.0625 0.21875,0.0469 0.39063,0.15625 0.25,0.14063 0.40625,0.40625 0.17187,0.25 0.28125,0.5625 0.0781,0.25 0.10937,0.54687 0.0469,0.28125 0.0469,0.57813 z m 8.13867,3.21875 v -0.89063 h -4.28125 l 2.29687,-2.48437 q 0.3125,-0.34375 0.59375,-0.70312 0.29688,-0.35938 0.53125,-0.71875 0.21875,-0.35938 0.34375,-0.73438 0.125,-0.375 0.125,-0.75 0,-0.51562 -0.1875,-0.9375 -0.17187,-0.4375 -0.5,-0.75 -0.34375,-0.32812 -0.82812,-0.5 -0.46875,-0.1875 -1.07813,-0.1875 -0.65625,0 -1.17187,0.21875 -0.51563,0.20313 -0.85938,0.5625 -0.35937,0.35938 -0.54687,0.84375 -0.1875,0.46875 -0.1875,1.01563 h 1.09375 q 0,-0.40625 0.0937,-0.71875 0.10937,-0.32813 0.3125,-0.5625 0.20312,-0.21875 0.51562,-0.34375 0.32813,-0.125 0.75,-0.125 0.34375,0 0.625,0.125 0.28125,0.125 0.48438,0.32812 0.1875,0.20313 0.28125,0.48438 0.10937,0.28125 0.10937,0.59375 0,0.25 -0.0625,0.5 -0.0625,0.25 -0.21875,0.51562 -0.14062,0.26563 -0.40625,0.59375 -0.25,0.32813 -0.625,0.73437 l -2.79687,3.10938 v 0.78125 z"
       fill-rule="nonzero"
       id="path55" />
    <path
       fill="#000000"
       fill-opacity="0"
       d="m 208,165.00787 h 60 V 216 h -60 z"
       fill-rule="evenodd"
       id="path56" />
    <path
       fill="#000000"
       d="m 218.35938,181.55913 h 1 l 1.14062,-2.84375 0.0937,-0.40625 0.0937,0.40625 1.15625,2.84375 h 1 l -1.875,-4.5625 h -0.73437 z m 6.6543,0.75 v 0.125 q 0,0.67187 0.17187,1.26562 0.1875,0.57813 0.51563,1.01563 0.32812,0.4375 0.79687,0.6875 0.46875,0.25 1.04688,0.25 0.57812,0 1.01562,-0.20313 0.45313,-0.20312 0.76563,-0.59375 l 0.0469,0.67188 h 1 v -9 h -1.09375 v 3.28125 q -0.3125,-0.35938 -0.73437,-0.54688 -0.42188,-0.1875 -0.98438,-0.1875 -0.59375,0 -1.0625,0.23438 -0.46875,0.23437 -0.79687,0.67187 -0.32813,0.42188 -0.51563,1.01563 -0.17187,0.59375 -0.17187,1.3125 z m 1.09375,0.125 v -0.125 q 0,-0.46875 0.0937,-0.89063 0.0937,-0.42187 0.3125,-0.73437 0.20312,-0.3125 0.53125,-0.5 0.32812,-0.1875 0.78125,-0.1875 0.53125,0 0.89062,0.25 0.35938,0.23437 0.5625,0.625 v 2.9375 q -0.20312,0.42187 -0.5625,0.67187 -0.35937,0.25 -0.90625,0.25 -0.45312,0 -0.78125,-0.1875 -0.3125,-0.1875 -0.51562,-0.5 -0.21875,-0.32812 -0.3125,-0.73437 -0.0937,-0.42188 -0.0937,-0.875 z m 8.20117,2.39062 q 0,0.34375 0.20312,0.57813 0.21875,0.23437 0.64063,0.23437 0.42187,0 0.64062,-0.23437 0.23438,-0.23438 0.23438,-0.57813 0,-0.35937 -0.23438,-0.59375 -0.21875,-0.25 -0.64062,-0.25 -0.42188,0 -0.64063,0.25 -0.20312,0.25 -0.20312,0.59375 z m 7.93555,-3.28125 -1.67188,-2.35937 h -1.26562 l 2.375,3.14062 -2.4375,3.20313 h 1.26562 l 1.75,-2.42188 1.76563,2.42188 h 1.25 l -2.42188,-3.20313 2.35938,-3.14062 h -1.28125 z"
       fill-rule="nonzero"
       id="path57" />
    <path
       fill="#000000"
       d="m 218.35938,198.11913 h 1 l 1.14062,-2.84375 0.0937,-0.40625 0.0937,0.40625 1.15625,2.84375 h 1 l -1.875,-4.5625 h -0.73437 z m 6.6543,0.75 v 0.125 q 0,0.67187 0.17187,1.26562 0.1875,0.57813 0.51563,1.01563 0.32812,0.4375 0.79687,0.6875 0.46875,0.25 1.04688,0.25 0.57812,0 1.01562,-0.20313 0.45313,-0.20312 0.76563,-0.59375 l 0.0469,0.67188 h 1 v -9 h -1.09375 v 3.28125 q -0.3125,-0.35938 -0.73437,-0.54688 -0.42188,-0.1875 -0.98438,-0.1875 -0.59375,0 -1.0625,0.23438 -0.46875,0.23437 -0.79687,0.67187 -0.32813,0.42188 -0.51563,1.01563 -0.17187,0.59375 -0.17187,1.3125 z m 1.09375,0.125 v -0.125 q 0,-0.46875 0.0937,-0.89063 0.0937,-0.42187 0.3125,-0.73437 0.20312,-0.3125 0.53125,-0.5 0.32812,-0.1875 0.78125,-0.1875 0.53125,0 0.89062,0.25 0.35938,0.23437 0.5625,0.625 v 2.9375 q -0.20312,0.42187 -0.5625,0.67187 -0.35937,0.25 -0.90625,0.25 -0.45312,0 -0.78125,-0.1875 -0.3125,-0.1875 -0.51562,-0.5 -0.21875,-0.32812 -0.3125,-0.73437 -0.0937,-0.42188 -0.0937,-0.875 z m 8.20117,2.39062 q 0,0.34375 0.20312,0.57813 0.21875,0.23437 0.64063,0.23437 0.42187,0 0.64062,-0.23437 0.23438,-0.23438 0.23438,-0.57813 0,-0.35937 -0.23438,-0.59375 -0.21875,-0.25 -0.64062,-0.25 -0.42188,0 -0.64063,0.25 -0.20312,0.25 -0.20312,0.59375 z m 5.82617,3.26563 q 0.42188,0 0.75,-0.15625 0.32813,-0.15625 0.57813,-0.39063 0.25,-0.23437 0.42187,-0.51562 0.17188,-0.28125 0.28125,-0.51563 l 3.21875,-7.32812 h -1.21875 l -1.625,4.10937 -0.29687,0.75 -0.28125,-0.76562 -1.75,-4.09375 h -1.20313 l 2.71875,6.04687 -0.42187,0.84375 q -0.0625,0.10938 -0.17188,0.29688 -0.0937,0.1875 -0.23437,0.35937 -0.15625,0.15625 -0.34375,0.28125 -0.17188,0.125 -0.40625,0.125 -0.0781,0 -0.21875,-0.0156 -0.14063,0 -0.29688,-0.0156 l -0.17187,0.89063 q 0.10937,0.0156 0.3125,0.0469 0.20312,0.0469 0.35937,0.0469 z"
       fill-rule="nonzero"
       id="path58" />
    <path
       fill="#000000"
       fill-opacity="0"
       d="M 40,190.20473 H 328"
       fill-rule="evenodd"
       id="path59" />
    <path
       stroke="#000000"
       stroke-width="1"
       stroke-linejoin="round"
       stroke-linecap="butt"
       d="M 40,190.20473 H 328"
       fill-rule="evenodd"
       id="path60" />
    <path
       fill="#000000"
       fill-opacity="0"
       d="m 44,173 h 45.007874 v 32 H 44 Z"
       fill-rule="evenodd"
       id="path61" />
    <path
       fill="#fff9e5"
       d="m 53,182 h 14.402344 v 14.39999 H 53 Z"
       fill-rule="nonzero"
       id="path62" />
    <path
       fill="#000000"
       fill-opacity="0"
       d="m 53,180.94579 h 14.402344 v 15.82617 H 53 Z"
       fill-rule="nonzero"
       id="path63" />
    <path
       fill="#000000"
       d="m 54.359375,189.55125 h 1 L 56.5,186.7075 l 0.09375,-0.40625 0.09375,0.40625 1.15625,2.84375 h 1 l -1.875,-4.5625 h -0.734375 z m 6.654297,0.75 v 0.125 q 0,0.67187 0.171875,1.26562 0.1875,0.57813 0.515625,1.01563 0.328125,0.4375 0.796875,0.6875 0.46875,0.25 1.046875,0.25 0.578125,0 1.015625,-0.20313 0.453125,-0.20312 0.765625,-0.59375 l 0.04687,0.67188 h 1 v -9 h -1.09375 v 3.28125 q -0.3125,-0.35938 -0.734375,-0.54688 -0.421875,-0.1875 -0.984375,-0.1875 -0.59375,0 -1.0625,0.23438 -0.46875,0.23437 -0.796875,0.67187 -0.328125,0.42188 -0.515625,1.01563 -0.171875,0.59375 -0.171875,1.3125 z m 1.09375,0.125 v -0.125 q 0,-0.46875 0.09375,-0.89063 0.09375,-0.42187 0.3125,-0.73437 0.203125,-0.3125 0.53125,-0.5 0.328125,-0.1875 0.78125,-0.1875 0.53125,0 0.890625,0.25 0.359375,0.23437 0.5625,0.625 v 2.9375 q -0.203125,0.42187 -0.5625,0.67187 -0.359375,0.25 -0.90625,0.25 -0.453125,0 -0.78125,-0.1875 -0.3125,-0.1875 -0.515625,-0.5 -0.21875,-0.32812 -0.3125,-0.73437 -0.09375,-0.42188 -0.09375,-0.875 z"
       fill-rule="nonzero"
       id="path64" />
    <path
       fill="#000000"
       fill-opacity="0"
       d="m 67.40234,180.94579 v 0 15.82617 0 z"
       fill-rule="nonzero"
       id="path65" />
  </g>
</svg>
