<?xml version="1.0" encoding="utf-8"?>
<!-- Generator: Adobe Illustrator 27.5.0, SVG Export Plug-In . SVG Version: 6.00 Build 0)  -->
<svg version="1.1" id="Layer_1" xmlns="http://www.w3.org/2000/svg" xmlns:xlink="http://www.w3.org/1999/xlink" x="0px" y="0px"
	 viewBox="0 0 839 355.9" style="enable-background:new 0 0 839 355.9;" xml:space="preserve">
<style type="text/css">
	.st0{fill:none;}
	.st1{fill:none;stroke:#EF4132;stroke-width:2;}
	.st2{fill:#191A21;stroke:#FFB86C;stroke-width:10;}
	.st3{enable-background:new    ;}
	.st4{fill:#FFB86C;}
	.st5{fill:#191A21;stroke:#50FA7B;stroke-width:10;}
	.st6{fill:#50FA7B;}
	.st7{fill:none;stroke:#FFB86C;stroke-width:5;stroke-miterlimit:10;}
	.st8{fill:none;stroke:#50FA7B;stroke-width:5;stroke-miterlimit:10;}
	.st9{display:none;}
	.st10{display:inline;}
</style>
<g id="two">
	<g>
		<path class="st0" d="M246.3,82.2"/>
	</g>
	<g>
		<path class="st0" d="M534.1,80.6"/>
	</g>
	<g>
		<path class="st0" d="M612.3,38.7"/>
	</g>
	<g>
		<path class="st0" d="M195.5,43.2"/>
	</g>
	<path class="st1" d="M-110.4,501.5"/>
	<path class="st1" d="M432.5-145.5"/>
	<path class="st1" d="M-204.7,389.1"/>
	<path class="st1" d="M526.8-33.2"/>
	<path class="st1" d="M-254.9,251.3"/>
	<path class="st1" d="M576.9,104.6"/>
	<path class="st1" d="M-254.9,104.6"/>
	<path class="st1" d="M576.9,251.3"/>
	<path class="st1" d="M-204.7-33.2"/>
	<path class="st1" d="M-110.4-145.5"/>
	<path class="st1" d="M432.5,501.5"/>
	<path class="st1" d="M386.5,500.5"/>
	<path class="st1" d="M927.8-144.6"/>
	<path class="st1" d="M1021.8-32.6"/>
	<path class="st1" d="M242.5,251.1"/>
	<path class="st1" d="M1071.8,104.9"/>
	<path class="st1" d="M242.5,104.9"/>
	<path class="st1" d="M1071.8,251.1"/>
	<path class="st1" d="M292.5-32.6"/>
	<path class="st1" d="M1021.8,388.5"/>
	<path class="st1" d="M386.5-144.6"/>
	<path class="st1" d="M927.8,500.5"/>
</g>
<g id="Layer_1_00000123403499144434022420000017826977676906950322_">
	<circle class="st2" cx="657.1" cy="178" r="160"/>
	<g class="st3">
		<path class="st4" d="M606,177.8c0-3.8,1-6.8,3.1-8.9c2-2.2,4.7-3.2,7.9-3.2c2.1,0,4,0.5,5.7,1.5s3,2.4,3.9,4.2s1.3,3.9,1.3,6.1
			c0,2.3-0.5,4.4-1.4,6.2s-2.3,3.2-4,4.2c-1.7,0.9-3.6,1.4-5.6,1.4c-2.2,0-4.1-0.5-5.8-1.6c-1.7-1-3-2.5-3.9-4.3
			C606.5,181.7,606,179.8,606,177.8z M609.2,177.9c0,2.8,0.7,4.9,2.2,6.5s3.3,2.4,5.6,2.4s4.2-0.8,5.6-2.4c1.5-1.6,2.2-3.9,2.2-6.8
			c0-1.9-0.3-3.5-0.9-4.9c-0.6-1.4-1.6-2.5-2.8-3.2c-1.2-0.8-2.6-1.1-4.1-1.1c-2.1,0-4,0.7-5.5,2.2
			C609.9,171.9,609.2,174.4,609.2,177.9z"/>
		<path class="st4" d="M631.5,189v-16.6h2.5v2.5c0.6-1.2,1.2-2,1.8-2.3s1.1-0.6,1.8-0.6c0.9,0,1.9,0.3,2.9,0.9l-1,2.6
			c-0.7-0.4-1.4-0.6-2.1-0.6c-0.6,0-1.2,0.2-1.7,0.6c-0.5,0.4-0.8,0.9-1,1.5c-0.3,1-0.5,2.1-0.5,3.3v8.7L631.5,189L631.5,189z"/>
		<path class="st4" d="M642.2,169.3v-3.2h2.8v3.2H642.2z M642.2,189v-16.6h2.8V189H642.2z"/>
		<path class="st4" d="M648.7,190.3l2.7,0.4c0.1,0.8,0.4,1.5,1,1.8c0.7,0.5,1.7,0.8,2.9,0.8c1.3,0,2.3-0.3,3-0.8s1.2-1.2,1.4-2.2
			c0.1-0.6,0.2-1.8,0.2-3.6c-1.2,1.4-2.8,2.2-4.6,2.2c-2.3,0-4-0.8-5.3-2.5c-1.2-1.6-1.9-3.6-1.9-5.9c0-1.6,0.3-3,0.9-4.4
			c0.6-1.3,1.4-2.4,2.5-3.1c1.1-0.7,2.4-1.1,3.8-1.1c2,0,3.6,0.8,4.8,2.4v-2h2.6v14.3c0,2.6-0.3,4.4-0.8,5.5s-1.4,1.9-2.5,2.6
			s-2.5,0.9-4.2,0.9c-2,0-3.6-0.4-4.8-1.3S648.7,192.1,648.7,190.3z M651.1,180.4c0,2.2,0.4,3.8,1.3,4.8c0.9,1,1.9,1.5,3.2,1.5
			s2.4-0.5,3.2-1.5c0.9-1,1.3-2.6,1.3-4.7c0-2-0.5-3.6-1.4-4.6s-2-1.5-3.3-1.5c-1.2,0-2.3,0.5-3.2,1.5S651.1,178.4,651.1,180.4z"/>
		<path class="st4" d="M667.1,169.3v-3.2h2.8v3.2H667.1z M667.1,189v-16.6h2.8V189H667.1z"/>
		<path class="st4" d="M674.2,189v-16.6h2.5v2.4c1.2-1.8,3-2.7,5.3-2.7c1,0,1.9,0.2,2.8,0.5c0.8,0.4,1.5,0.8,1.9,1.4
			c0.4,0.6,0.7,1.3,0.9,2.1c0.1,0.5,0.2,1.4,0.2,2.7V189H685v-10.1c0-1.1-0.1-2-0.3-2.6s-0.6-1-1.2-1.4c-0.6-0.3-1.2-0.5-2-0.5
			c-1.2,0-2.2,0.4-3.1,1.1c-0.9,0.8-1.3,2.2-1.3,4.3v9.1h-2.9V189z"/>
		<path class="st4" d="M702.8,186.9c-1,0.9-2,1.5-3,1.9s-2,0.5-3.1,0.5c-1.8,0-3.2-0.4-4.2-1.3c-1-0.9-1.5-2-1.5-3.4
			c0-0.8,0.2-1.6,0.6-2.2c0.4-0.7,0.9-1.2,1.5-1.6c0.6-0.4,1.3-0.7,2-0.9c0.6-0.1,1.4-0.3,2.5-0.4c2.3-0.3,3.9-0.6,5-1
			c0-0.4,0-0.6,0-0.7c0-1.1-0.3-2-0.8-2.4c-0.7-0.6-1.8-1-3.2-1c-1.3,0-2.3,0.2-2.9,0.7c-0.6,0.5-1.1,1.3-1.4,2.5l-2.8-0.4
			c0.2-1.2,0.7-2.1,1.2-2.9c0.6-0.7,1.4-1.3,2.5-1.7s2.3-0.6,3.8-0.6c1.4,0,2.6,0.2,3.5,0.5s1.5,0.8,2,1.3c0.4,0.5,0.7,1.1,0.9,1.9
			c0.1,0.5,0.1,1.3,0.1,2.6v3.8c0,2.6,0.1,4.3,0.2,5c0.1,0.7,0.4,1.4,0.7,2h-2.9C703.1,188.4,702.9,187.7,702.8,186.9z M702.6,180.6
			c-1,0.4-2.6,0.8-4.6,1.1c-1.2,0.2-2,0.4-2.5,0.6c-0.5,0.2-0.8,0.5-1.1,0.9s-0.4,0.8-0.4,1.3c0,0.8,0.3,1.4,0.9,1.9
			c0.6,0.5,1.4,0.8,2.5,0.8s2-0.2,2.9-0.7c0.8-0.5,1.5-1.1,1.9-1.9c0.3-0.6,0.5-1.6,0.5-2.8v-1.2H702.6z"/>
		<path class="st4" d="M709.7,189v-22.9h2.8V189H709.7z"/>
	</g>
	<circle class="st5" cx="161" cy="178" r="139.1"/>
	<g class="st3">
		<path class="st6" d="M87.8,180.4l2.9-0.2c0.1,1.1,0.5,2.1,0.9,2.8c0.5,0.7,1.3,1.3,2.3,1.8s2.2,0.7,3.5,0.7c1.2,0,2.2-0.2,3.1-0.5
			s1.5-0.8,2-1.4c0.4-0.6,0.6-1.3,0.6-2s-0.2-1.3-0.6-1.9c-0.4-0.5-1.1-1-2.1-1.4c-0.6-0.2-2-0.6-4.1-1.1s-3.6-1-4.4-1.4
			c-1.1-0.6-1.9-1.3-2.4-2.1s-0.8-1.8-0.8-2.9c0-1.2,0.3-2.2,1-3.2s1.6-1.8,2.9-2.3s2.7-0.8,4.2-0.8c1.7,0,3.2,0.3,4.5,0.8
			s2.3,1.4,3,2.4c0.7,1.1,1.1,2.3,1.1,3.6l-2.9,0.2c-0.2-1.4-0.7-2.5-1.6-3.3c-0.9-0.7-2.2-1.1-4-1.1s-3.2,0.3-4,1s-1.3,1.5-1.3,2.4
			c0,0.8,0.3,1.5,0.9,2s2.1,1.1,4.6,1.6c2.5,0.6,4.2,1,5.1,1.5c1.3,0.6,2.3,1.4,3,2.3c0.6,0.9,1,2,1,3.3c0,1.2-0.3,2.4-1,3.4
			c-0.7,1.1-1.7,1.9-3,2.5s-2.8,0.9-4.4,0.9c-2.1,0-3.8-0.3-5.2-0.9c-1.4-0.6-2.5-1.5-3.3-2.7C88.2,183.3,87.8,182,87.8,180.4z"/>
		<path class="st6" d="M120.7,187.8v-2.4c-1.3,1.9-3,2.8-5.3,2.8c-1,0-1.9-0.2-2.7-0.6c-0.8-0.4-1.5-0.8-1.9-1.4
			c-0.4-0.6-0.7-1.3-0.9-2.1c-0.1-0.6-0.2-1.4-0.2-2.6v-10.3h2.8v9.2c0,1.5,0.1,2.5,0.2,3c0.2,0.7,0.6,1.3,1.1,1.7
			c0.6,0.4,1.3,0.6,2.1,0.6s1.6-0.2,2.4-0.6c0.7-0.4,1.3-1,1.6-1.8c0.3-0.7,0.5-1.8,0.5-3.2v-8.9h2.8v16.6H120.7z"/>
		<path class="st6" d="M138.4,181.7l2.8,0.4c-0.3,1.9-1.1,3.4-2.3,4.5s-2.8,1.6-4.6,1.6c-2.3,0-4.1-0.7-5.5-2.2
			c-1.4-1.5-2.1-3.6-2.1-6.4c0-1.8,0.3-3.4,0.9-4.7c0.6-1.3,1.5-2.4,2.7-3c1.2-0.7,2.5-1,4-1c1.8,0,3.3,0.5,4.4,1.4
			c1.1,0.9,1.9,2.2,2.2,3.9l-2.7,0.4c-0.3-1.1-0.7-2-1.4-2.5c-0.7-0.6-1.5-0.8-2.4-0.8c-1.4,0-2.6,0.5-3.5,1.5s-1.3,2.6-1.3,4.8
			s0.4,3.8,1.3,4.9c0.9,1,2,1.5,3.3,1.5c1.1,0,2-0.3,2.8-1C137.8,184.2,138.2,183.1,138.4,181.7z"/>
		<path class="st6" d="M154.4,181.7l2.8,0.4c-0.3,1.9-1.1,3.4-2.3,4.5s-2.8,1.6-4.6,1.6c-2.3,0-4.1-0.7-5.5-2.2s-2.1-3.6-2.1-6.4
			c0-1.8,0.3-3.4,0.9-4.7s1.5-2.4,2.7-3c1.2-0.7,2.5-1,4-1c1.8,0,3.3,0.5,4.4,1.4c1.1,0.9,1.9,2.2,2.2,3.9l-2.7,0.4
			c-0.3-1.1-0.7-2-1.4-2.5c-0.7-0.6-1.5-0.8-2.4-0.8c-1.4,0-2.6,0.5-3.5,1.5s-1.3,2.6-1.3,4.8s0.4,3.8,1.3,4.9c0.9,1,2,1.5,3.3,1.5
			c1.1,0,2-0.3,2.8-1C153.8,184.2,154.2,183.1,154.4,181.7z"/>
		<path class="st6" d="M171,182.4l2.9,0.4c-0.5,1.7-1.3,3-2.5,4c-1.2,0.9-2.8,1.4-4.8,1.4c-2.4,0-4.4-0.7-5.8-2.2
			c-1.4-1.5-2.1-3.6-2.1-6.3c0-2.8,0.7-5,2.2-6.5c1.4-1.5,3.3-2.3,5.6-2.3c2.2,0,4,0.8,5.4,2.3s2.1,3.6,2.1,6.4c0,0.2,0,0.4,0,0.8
			h-12.4c0.1,1.8,0.6,3.2,1.5,4.2s2.1,1.5,3.5,1.5c1,0,1.9-0.3,2.6-0.8C170,184.5,170.5,183.6,171,182.4z M161.7,177.9h9.3
			c-0.1-1.4-0.5-2.4-1.1-3.1c-0.9-1.1-2.1-1.6-3.5-1.6c-1.3,0-2.4,0.4-3.3,1.3C162.3,175.3,161.8,176.4,161.7,177.9z"/>
		<path class="st6" d="M176.3,182.8l2.8-0.4c0.2,1.1,0.6,2,1.3,2.6s1.7,0.9,3,0.9s2.2-0.3,2.9-0.8c0.6-0.5,0.9-1.1,0.9-1.9
			c0-0.6-0.3-1.1-0.8-1.5c-0.4-0.2-1.3-0.6-2.9-1c-2.1-0.5-3.5-1-4.3-1.4s-1.4-0.9-1.8-1.6c-0.4-0.7-0.6-1.4-0.6-2.2
			c0-0.7,0.2-1.4,0.5-2.1c0.3-0.6,0.8-1.2,1.4-1.6c0.4-0.3,1-0.6,1.8-0.8s1.6-0.3,2.4-0.3c1.3,0,2.4,0.2,3.4,0.6s1.7,0.9,2.2,1.5
			s0.8,1.5,1,2.6l-2.8,0.4c-0.1-0.9-0.5-1.5-1.1-2s-1.4-0.7-2.5-0.7c-1.3,0-2.2,0.2-2.8,0.6c-0.6,0.4-0.8,0.9-0.8,1.5
			c0,0.4,0.1,0.7,0.3,1s0.6,0.6,1.1,0.8c0.3,0.1,1.1,0.3,2.5,0.7c2,0.5,3.4,1,4.2,1.3s1.4,0.8,1.9,1.5c0.4,0.6,0.7,1.4,0.7,2.4
			c0,0.9-0.3,1.8-0.8,2.6s-1.3,1.5-2.4,1.9s-2.2,0.7-3.5,0.7c-2.2,0-3.8-0.4-4.9-1.3C177.3,185.9,176.6,184.6,176.3,182.8z"/>
		<path class="st6" d="M192.3,182.8l2.8-0.4c0.2,1.1,0.6,2,1.3,2.6s1.7,0.9,3,0.9s2.2-0.3,2.9-0.8c0.6-0.5,0.9-1.1,0.9-1.9
			c0-0.6-0.3-1.1-0.8-1.5c-0.4-0.2-1.3-0.6-2.9-1c-2.1-0.5-3.5-1-4.3-1.4s-1.4-0.9-1.8-1.6c-0.4-0.7-0.6-1.4-0.6-2.2
			c0-0.7,0.2-1.4,0.5-2.1c0.3-0.6,0.8-1.2,1.4-1.6c0.4-0.3,1-0.6,1.8-0.8s1.6-0.3,2.4-0.3c1.3,0,2.4,0.2,3.4,0.6s1.7,0.9,2.2,1.5
			s0.8,1.5,1,2.6l-2.8,0.4c-0.1-0.9-0.5-1.5-1.1-2s-1.4-0.7-2.5-0.7c-1.3,0-2.2,0.2-2.8,0.6c-0.6,0.4-0.8,0.9-0.8,1.5
			c0,0.4,0.1,0.7,0.3,1s0.6,0.6,1.1,0.8c0.3,0.1,1.1,0.3,2.5,0.7c2,0.5,3.4,1,4.2,1.3s1.4,0.8,1.9,1.5c0.4,0.6,0.7,1.4,0.7,2.4
			c0,0.9-0.3,1.8-0.8,2.6s-1.3,1.5-2.4,1.9s-2.2,0.7-3.5,0.7c-2.2,0-3.8-0.4-4.9-1.3C193.3,185.9,192.6,184.6,192.3,182.8z"/>
		<path class="st6" d="M208.3,179.5c0-3.1,0.9-5.3,2.6-6.8c1.4-1.2,3.2-1.8,5.2-1.8c2.3,0,4.1,0.7,5.6,2.2c1.4,1.5,2.2,3.6,2.2,6.2
			c0,2.1-0.3,3.8-1,5c-0.6,1.2-1.6,2.2-2.8,2.9s-2.6,1-4,1c-2.3,0-4.2-0.7-5.6-2.2C209.1,184.4,208.3,182.3,208.3,179.5z
			 M211.2,179.5c0,2.1,0.5,3.7,1.4,4.8s2.1,1.6,3.5,1.6s2.6-0.5,3.5-1.6s1.4-2.7,1.4-4.9c0-2.1-0.5-3.6-1.4-4.7
			c-0.9-1.1-2.1-1.6-3.5-1.6s-2.6,0.5-3.5,1.6C211.7,175.8,211.2,177.4,211.2,179.5z"/>
		<path class="st6" d="M227.2,187.8v-16.6h2.5v2.5c0.6-1.2,1.2-2,1.8-2.3s1.1-0.6,1.8-0.6c0.9,0,1.9,0.3,2.9,0.9l-1,2.6
			c-0.7-0.4-1.4-0.6-2.1-0.6c-0.6,0-1.2,0.2-1.7,0.6c-0.5,0.4-0.8,0.9-1,1.5c-0.3,1-0.5,2.1-0.5,3.3v8.7L227.2,187.8L227.2,187.8z"
			/>
	</g>
</g>
<g id="Layer_3">
	<g>
		<g>
			<path class="st7" d="M324.2,216.6c59.1,7.1,118.2,6.8,177.4-1"/>
			<g>
				<polygon class="st4" points="327.3,237 295.8,212.6 332.7,197.5 				"/>
			</g>
		</g>
	</g>
	<g>
		<g>
			<path class="st8" d="M295.8,143.4c59.3-9.6,118.6-11.6,177.9-6.2"/>
			<g>
				<polygon class="st6" points="465.7,156.6 502.2,140.4 470,117 				"/>
			</g>
		</g>
	</g>
	<g class="st9">
		<g class="st10">
			<path class="st7" d="M288.3,286.8c82.9,46.5,165.7,45.4,248.3-3.6"/>
			<g>
				<polygon class="st4" points="283,306.7 263.9,271.8 303.7,272.6 				"/>
			</g>
		</g>
	</g>
	<g class="st9">
		<g class="st10">
			<path class="st8" d="M263.7,84c82.6-55.9,165.1-64.2,247.7-24.9"/>
			<g>
				<polygon class="st6" points="496.8,74.3 536.7,72.7 515.4,38.9 				"/>
			</g>
		</g>
	</g>
	<g class="st9">
		<g class="st10">
			<path class="st7" d="M309,99.8c69.1-21,138.2-20.2,207.3,2.3"/>
			<g>
				<polygon class="st4" points="321,117 281.9,109.1 308.2,79.2 				"/>
			</g>
		</g>
	</g>
	<g class="st9">
		<g class="st10">
			<path class="st8" d="M281.9,246.8c68.9,26.6,137.8,31.5,206.7,14.9"/>
			<g>
				<polygon class="st6" points="488.2,282.3 516.2,253.9 477.6,243.8 				"/>
			</g>
		</g>
	</g>
	<g class="st9">
		<g class="st10">
			<line class="st8" x1="300.1" y1="178" x2="468.4" y2="178"/>
			<g>
				<polygon class="st6" points="462.6,197.9 497.1,178 462.6,158.1 				"/>
			</g>
		</g>
	</g>
</g>
<g>
</g>
</svg>
